<svg width="109" height="88" viewBox="0 0 109 88" fill="none" xmlns="http://www.w3.org/2000/svg">
<path d="M18.39 29.029C17.7477 28.5749 -0.0872752 22.1045 0.166413 21.6202C0.377514 21.2172 14.0303 22.4994 18.6084 22.9413C19.5448 23.0317 20.4584 22.6776 21.1423 22.0315C22.4352 20.8101 24.6922 18.9001 26.6308 18.3976C29.5438 17.6425 32.1053 17.7966 34.5161 18.3976C36.9269 18.9986 47.158 30.4759 48.2955 30.8396C49.433 31.2033 81.3023 3.28667 87.4801 1.55257C93.6578 -0.181524 108.523 0.949885 108.123 2.75798C107.722 4.56608 69.3607 43.3292 69.6428 45.3274C69.9249 47.3256 106.297 86.3909 105.635 86.9534C104.973 87.5159 93.4303 86.8027 90.7003 84.967C87.9703 83.1313 76.4039 70.2687 71.6637 68.4772C66.9236 66.6857 45.0634 67.0218 34.8752 58.5048C24.6871 49.9878 19.0324 29.4832 18.39 29.029Z" fill="#E41F43"/>
</svg>
